<svg xmlns="http://www.w3.org/2000/svg" version="1.1" xmlns:xlink="http://www.w3.org/1999/xlink" viewBox="0 0 4.73381566300574 4.26206503185143"><g transform="matrix(1,0,0,1,2.3649108738681326,3.603240167479826)"><rect width="4.73381566300574" height="4.73381566300574" x="-2.3649108738681326" y="-3.839115483056981" fill="#4e888f"></rect><g transform="matrix(1,0,0,1,0,0)"><path d=" M -1.7894998128585813 -1.7646095025198587 C -1.812775782297482 -1.7761952371396124 -1.828954222800963 -1.8199931601825527 -1.8254295737638824 -1.8495156405858895 C -1.8223465106660466 -1.875906827030132 -1.7996487812732895 -1.9372159868711636 -1.7751404965007336 -1.9864536145303768 C -1.7537514479719576 -2.0294246350329628 -1.7243053330989468 -2.0683852089364034 -1.7055617809672003 -2.090332401319132 C -1.69306473979989 -2.1042185081191875 -1.6438914199556882 -2.115487253191281 -1.6268820576734146 -2.1070207548153075 C -1.5776444300142014 -2.0825124700427513 -1.5340951694654719 -1.98822852705319 -1.5434006280971146 -1.9403598688345312 C -1.5464997681487034 -1.922912939851451 -1.5540469215002441 -1.892041586199751 -1.563376495562516 -1.8575893141728357 C -1.5965241059638886 -1.887493091938844 -1.624296319564 -1.9124871742734646 -1.6368415915925687 -1.925433839856896 C -1.657002344026128 -1.9455222459985675 -1.6798809391486043 -1.984835982595612 -1.6870427758990352 -1.9884008240170745 C -1.6986807606184855 -1.9941936913269513 -1.7647910964530733 -1.9511422860556014 -1.77370320000673 -1.9332376941795237 C -1.7786048569612412 -1.923390168647681 -1.7436105180341257 -1.861290279412239 -1.7171831584439397 -1.8380826370267878 L -1.597587613283139 -1.7327550263176728 L -1.6122564110007287 -1.6830878704345296 C -1.6135851880569008 -1.6759300529225367 -1.6113370659762956 -1.6692258790651033 -1.6041752292258644 -1.6656610376436407 C -1.594327703694022 -1.6607593806891294 -1.5397709485716822 -1.662646301599254 -1.5330868709064398 -1.6760747455063123 C -1.479782527309946 -1.6283186259639233 -1.4345392692961256 -1.5868090173859701 -1.4246837052874066 -1.577435231700878 C -1.4022828692501188 -1.5551147804323542 -1.3892035687982265 -1.4938699284063337 -1.3820417320477956 -1.490305086984871 C -1.3677180585469335 -1.4831754041419458 -1.3069630233214162 -1.5199561830182307 -1.2976053145900768 -1.538756004488112 C -1.2918124472802 -1.5503939892075624 -1.2994681200695724 -1.5798963734187081 -1.3120415267672085 -1.6084954895591737 C -1.2839040927581788 -1.6291179241241684 -1.2298733275822862 -1.6748309027463009 -1.2022458065659505 -1.7303351375621412 C -1.1567940784423014 -1.8216485561301363 -1.2009899060906246 -2.026840487790423 -1.305731768565678 -2.0789762935793146 C -1.3603407737877142 -2.106158209417967 -1.4716059443904816 -2.0554229966881774 -1.4716059443904816 -2.0554229966881774 C -1.4716059443904816 -2.0554229966881774 -1.4964156720459032 -2.173890196425758 -1.568929269144017 -2.2099842158180674 C -1.6289096519288766 -2.2398397627228173 -1.7365939041564287 -2.187322129282296 -1.778990703851309 -2.1380523477155773 C -1.7995206959322252 -2.1147603013229235 -1.8302835301460934 -2.0619337168116187 -1.849890157964138 -2.022543614684248 C -1.871724811670597 -1.9786773645878581 -1.8957633758348407 -1.9169185803307054 -1.9006368981202844 -1.8914186042418288 C -1.9148078405604945 -1.813577841203712 -1.8546264958537244 -1.671919076034433 -1.8116554753511385 -1.650530027505657 C -1.7892747355060417 -1.6393898980635861 -1.685111113077132 -1.66014898673548 -1.6761990095234753 -1.6780535786115576 C -1.6690693266805499 -1.6923772521124194 -1.674517069773699 -1.7375361061190375 -1.6870502840869535 -1.7437745786065972 C -1.6995834984002076 -1.750013051094157 -1.7689095322010921 -1.7543605834331535 -1.7894998128585813 -1.7646095025198587 M -1.4579966347537043 -1.9481160225848586 C -1.4459652949562678 -1.9722872216175633 -1.3914205975492426 -1.9808823356235599 -1.346659117859049 -1.958602076739418 C -1.2902596534494049 -1.9305289505453995 -1.2506645701616856 -1.7968830400975353 -1.2778464860003385 -1.7422740348754988 C -1.2934426672192376 -1.7109409990923632 -1.3305163202125534 -1.6858303588430346 -1.3541936832063166 -1.6719241558507878 C -1.3783849784312123 -1.6951358174746773 -1.4379599484227712 -1.7482472376261367 -1.497980523592013 -1.8004634281837926 C -1.4802125858228345 -1.8675775130500156 -1.4628982917082154 -1.938268497053016 -1.4579966347537043 -1.9481160225848586 M -1.2635315269599636 -2.491193074738806 C -1.2405912689112486 -2.5135032643538304 -1.2687036480302318 -2.576833305726552 -1.2951969981980738 -2.6040748621594005 C -1.3126268338348122 -2.6219969387599593 -1.3560219768847772 -2.6035074401276797 -1.373944053485336 -2.5860776044909417 C -1.397601194598073 -2.563070221450447 -1.3687719324150678 -2.5004373735031957 -1.3422785822472256 -2.4731958170703465 C -1.3248487466104875 -2.455273740469788 -1.2814536035605224 -2.4737632391020674 -1.2635315269599636 -2.491193074738806 M -1.1120937689835855 -2.041442471115989 C -1.0807200648374569 -2.0091827332349834 -0.9869184652057256 -2.0418210528383027 -0.9546587273247201 -2.0731947569844316 C -0.9030431467151113 -2.1233926836182375 -0.9234747645914979 -2.2304606479724427 -0.9544824216812443 -2.3397973993500316 C -0.9544824216812443 -2.3397973993500316 -0.9604815075707307 -2.366046417779119 -0.968847828676365 -2.374649014547387 C -0.9772141497819993 -2.3832516113156554 -1.003423788933981 -2.380080678405153 -1.0127432687662714 -2.3710171638740487 C -1.022062748598562 -2.361953649342945 -1.015248331452289 -2.3434722067867866 -1.015248331452289 -2.3434722067867866 C -0.9890619594251711 -2.2433958663258298 -0.9740897511212239 -2.1505474254207546 -0.9948793599778718 -2.1303288160821383 C -1.0020481906180954 -2.123356881827443 -1.0239762210244958 -2.1229550329802658 -1.0330397355555996 -2.132274512812556 C -1.0818432753384666 -2.18245632729412 -1.180644267883301 -2.4002276841621795 -1.1966797166691001 -2.416715994634693 C -1.2099263917530212 -2.430336772851118 -1.2837734034234436 -2.4087354102239944 -1.2923760001917117 -2.4003690891183598 C -1.303129246152047 -2.389911187736317 -1.308285255070073 -2.3751322983315872 -1.301392079369589 -2.362307161733396 C -1.270353099078858 -2.306008123531029 -1.1448618599806535 -2.0751359751250393 -1.1120937689835855 -2.041442471115989 M -0.988346745169641 -2.7453636590581887 C -0.9905092478381534 -2.752315175598389 -0.9948634902621367 -2.762612775945712 -0.9981510998953429 -2.7676319016563964 C -1.0080139287949614 -2.7826892787884483 -1.0840458392894587 -2.7783133689908466 -1.1007762583250722 -2.767354670213493 C -1.1074684259393177 -2.762971190702551 -1.1106136349944022 -2.7513476086384965 -1.1062886296573775 -2.7374445755580963 C -1.100089707664753 -2.715205570046847 -1.0816938164389176 -2.6579203958216846 -1.0592322688020122 -2.588953165358551 L -1.0826548554518713 -2.5736109870702553 C -1.0960391906803622 -2.5648440280483724 -1.0891791702577067 -2.5215203610775268 -1.0826039509912944 -2.5114821096561584 C -1.0793163413580882 -2.5064629839454744 -1.0721054758919333 -2.5064045097715577 -1.06792287113303 -2.509144184465896 L -1.0394811587724868 -2.5277739723873975 C -0.99669132908023 -2.4003964607344077 -0.9479034521473867 -2.2602117858787523 -0.933109208797959 -2.237625720180674 C -0.9057124618545744 -2.1957996725916398 -0.8013265502604088 -2.207989072111511 -0.7444431255393223 -2.245248647954514 C -0.6833770960593326 -2.2852478984918556 -0.6838844393412323 -2.3936994664970914 -0.6926692808800641 -2.507487983312883 C -0.6926692808800641 -2.507487983312883 -0.6943970121008722 -2.5338511194091184 -0.7009722313672845 -2.543889370830487 C -0.7075474506336968 -2.5539276222518548 -0.7338813496429742 -2.5558053237641243 -0.7447561220161231 -2.548682169558844 C -0.755630894389272 -2.541559015353564 -0.7532967540556796 -2.5215702237717026 -0.7532967540556796 -2.5215702237717026 C -0.7449721361948407 -2.4194345261069246 -0.7487897982499658 -2.324885991182089 -0.7730489058516057 -2.3089958779549256 C -0.7964714925014648 -2.2936536996666304 -0.8330445176841484 -2.2983880242210715 -0.8505784357279146 -2.325156694678053 C -0.8631809393218716 -2.344396676569009 -0.9072967507308602 -2.479273639701067 -0.941608207414147 -2.591882360234918 L -0.8746865312716925 -2.635717155344333 C -0.8613021960432015 -2.6444841143662163 -0.8673256955140762 -2.6883557162759297 -0.8744488497193563 -2.6992304886490786 C -0.8777364593525624 -2.7042496143597625 -0.8843993898798497 -2.7034715675818983 -0.8894185155905336 -2.7001839579486924 L -0.9613593174436723 -2.653061553206071 M -0.5960978527234042 -2.580376030724082 C -0.6032194322069386 -2.6276970948040423 -0.5870937124222545 -2.7595377606148075 -0.5503077578109679 -2.7724912753245823 C -0.5371025433351213 -2.777141254963989 -0.5183573142174774 -2.772079991749431 -0.513707334578071 -2.7588747772735847 C -0.504739516702073 -2.7334075779273093 -0.505547810603314 -2.6122616053942975 -0.5960978527234042 -2.580376030724082 M -0.693979653810322 -2.4579131669000596 C -0.668072624390772 -2.3843412576774865 -0.5323526509522831 -2.3632204430659263 -0.4493484456755338 -2.3924488865136238 C -0.37294684763670766 -2.419352340141618 -0.3114786389398901 -2.5067288777223924 -0.2901852667345948 -2.650991112212666 C -0.2901852667345948 -2.650991112212666 -0.28650576373432274 -2.676671089971048 -0.29049146056809966 -2.6879898452360593 C -0.2944771574018766 -2.6993086005010705 -0.3195992415606822 -2.7074253047286425 -0.3318612264311111 -2.703107466492051 C -0.34412321130154 -2.6987896282554593 -0.34569050289421543 -2.6791543641354245 -0.34569050289421543 -2.6791543641354245 C -0.3644863276860726 -2.5368317834590126 -0.4267122346099179 -2.475693117236196 -0.4776466333024687 -2.4577574814842 C -0.5182055063354258 -2.443475401163166 -0.5710536112725284 -2.4640928162425833 -0.5790250049400822 -2.486730326772606 C -0.5896535298301541 -2.5169136741459694 -0.587754096834664 -2.5356057086605865 -0.587754096834664 -2.5356057086605865 C -0.587754096834664 -2.5356057086605865 -0.5368858665297948 -2.5386754229226627 -0.4944405342860025 -2.553621786049326 C -0.43313060993385805 -2.5752109772322846 -0.42590653963749037 -2.747384763879245 -0.4425136097782276 -2.7945462441501254 C -0.4567956900992616 -2.8351051171830823 -0.5601798839384187 -2.851709588395006 -0.6082845938147166 -2.8347703768514543 C -0.696004947118554 -2.803881226389683 -0.7315116323283881 -2.5644981123122492 -0.693979653810322 -2.4579131669000596 M -0.07639595525051662 -2.9889374281026804 C -0.07500236606148561 -2.9978288795686794 -0.05979942568161262 -3.023787897342972 -0.054085514206595964 -3.027953376385732 C 0.008767512018587387 -3.0737736458560923 0.0894994048265707 -3.1238771535540595 0.1062943687067911 -3.121244818419223 C 0.11419788112101242 -3.120006072473418 0.12237399596330684 -3.1075903104716067 0.12051587704459882 -3.0957350418502747 C 0.11261887164008988 -3.0453501502096136 -0.09453895925178116 -2.621312848666253 -0.10615220249370608 -2.547217419782928 C -0.11048781330402474 -2.5195551263331533 -0.03590605915697731 -2.4916703285331088 -0.018123156224979287 -2.4888831501550466 C -0.004292009500091953 -2.4867153447498875 -0.001077385450731272 -2.4943091706776572 0.0026017683283063864 -2.5048668137607604 C 0.06199163811500957 -2.67067044269185 0.14136930029724842 -2.8606709341293257 0.20419402397867403 -2.977350212899605 C 0.2213139628696787 -3.009082021741338 0.31887790361626067 -3.06970608846403 0.3455522580142578 -3.065525320896937 C 0.3702507343086995 -3.0616542398162956 0.38681668682893755 -3.0317281773105593 0.38418435169410114 -3.0149332134303393 C 0.37907452466765423 -2.982331224721676 0.1841187329419448 -2.5715645765227237 0.17327970591614822 -2.502408842898287 C 0.1698731545651836 -2.480674183759178 0.22886160671943767 -2.4501723393486303 0.2555359611174347 -2.4459915717815375 C 0.2693671078423221 -2.443823766376378 0.27258173189168267 -2.451417592304148 0.2762608856707204 -2.461975235387251 C 0.33907910234243355 -2.6302781517439966 0.4193269443916028 -2.8322887550460303 0.48137745185689995 -2.944028338557421 C 0.5056048914119523 -2.988817077907913 0.5922273344722234 -3.0248386319869653 0.6159378717148875 -3.0211223941495495 C 0.6396484089575515 -3.0174061563121333 0.6525722917571302 -2.9900753448828556 0.6499399566222938 -2.973280381002635 C 0.6448301295958468 -2.940678392293972 0.4668176379838711 -2.5798909855984276 0.45597861095807446 -2.5107352519739905 C 0.45071394068840187 -2.47714532421355 0.49856896785474103 -2.4079001339480235 0.5094362974242953 -2.4061968582725415 C 0.5262312613045157 -2.403564523137705 0.5954393675116637 -2.4382666561444832 0.5977620161600488 -2.4530857419211483 C 0.5991556053490797 -2.4619771933871473 0.5749958269010716 -2.495117879942244 0.5770087890630052 -2.5079610876153535 C 0.5853703241971913 -2.5613097964113476 0.7699669071511139 -2.93827279401421 0.7772445395827201 -2.98470592944776 C 0.7843673287711008 -3.0301511258295326 0.7033498195156198 -3.0944719093605038 0.6559287450302917 -3.101904385035336 C 0.619375000114518 -3.1076335850346855 0.5486184614751133 -3.0630520615101307 0.5133470535732356 -3.038214030496796 C 0.5022812896923649 -3.0774001105474063 0.4267268850178728 -3.13782801746369 0.3832575667396554 -3.1446411201656197 C 0.3467038218238817 -3.150370320164969 0.27449481440302226 -3.102979822728307 0.24052103203937358 -3.0799628265753025 C 0.23668052800739792 -3.120040882026888 0.16788685345212373 -3.1783969471888147 0.12738135232923936 -3.1847455201610666 C 0.08391203405102199 -3.1915586228629964 -0.035386565834668704 -3.134341107491269 -0.10345188974681341 -3.1004720702930424 C -0.12766404077753277 -3.0880715968155643 -0.18892504350236874 -3.0136599744360755 -0.19295096782623605 -2.9879735590898564 C -0.19682204890687768 -2.9632750827954144 -0.14679270932566685 -2.8562374016683094 -0.1270339282901135 -2.853140536803796 C -0.1112269034616708 -2.8506630449121855 -0.0701238248999291 -2.8675015998604962 -0.06795601949476979 -2.8813327465853837 C -0.06578821408961047 -2.8951638933102712 -0.07995734984470693 -2.9662148299117943 -0.07639595525051662 -2.9889374281026804 M 1.1106797701920026 -2.4205326699364638 C 1.0928400527214106 -2.398951555957583 0.9918536117468764 -2.325441429177003 0.9496789541275019 -2.305812413544819 C 0.891144139673823 -2.2789483949163003 0.8303067893018669 -2.283828640783042 0.8148917078883805 -2.296571296119179 C 0.8017888886869171 -2.307402553154896 0.7987465724504959 -2.3319737621588827 0.8134006260870537 -2.349701105784392 C 0.8694683095660574 -2.417527464003732 1.048998197079272 -2.5091463457339325 1.087535900612988 -2.47728970739359 C 1.0998679657437773 -2.4670955831246797 1.1208738944609125 -2.432864735067253 1.1106797701920026 -2.4205326699364638 M 1.1990625617481467 -2.185293467938278 C 1.1039536632724878 -2.147145107151126 1.0132737204119462 -2.1222022131167733 0.9901510982917165 -2.1413161961209792 C 0.9832143116556477 -2.147050391022241 0.9788977298856127 -2.1700800918848793 0.987180455854102 -2.1800998948036456 C 1.0381510771986509 -2.241760220457591 1.1963263932944432 -2.326380368046662 1.2186260401326834 -2.353356760520263 C 1.234554359302855 -2.3726256122871208 1.1927690444300438 -2.416248856790253 1.1727294385925116 -2.432814308727231 C 1.1727294385925116 -2.432814308727231 1.1716489469965328 -2.51155332407484 1.1099886213425871 -2.562523945419389 C 1.039850000911224 -2.6205030271988132 0.8073239250366638 -2.525985176829805 0.7232223998181583 -2.4242456395007945 C 0.6888172304105877 -2.3826249196843814 0.7126504539677241 -2.28118539358693 0.7481051412187428 -2.2518772863138143 C 0.7874135988231332 -2.2193835152066645 0.8757096056728452 -2.232025317862758 0.8757096056728452 -2.232025317862758 C 0.8640359207676477 -2.205347141749422 0.9037974634949555 -2.1231764674188285 0.9384813966753 -2.09450549291252 C 0.993975689763851 -2.048631933702426 1.09742926171306 -2.0811797208921843 1.2035340122808338 -2.123212825785239 C 1.2035340122808338 -2.123212825785239 1.2282078688361577 -2.132657443442259 1.23585346203784 -2.141906492290351 C 1.2434990552395224 -2.1511555411384427 1.2375073440242714 -2.176867394372176 1.2274875411055053 -2.185150120340665 C 1.2174677381867391 -2.1934328463091544 1.1990625617481467 -2.185293467938278 1.1990625617481467 -2.185293467938278 M 1.6053517269049782 -2.1390917561861875 C 1.6122642283762945 -2.141375902286823 1.622483840647456 -2.145910163530634 1.627444506847223 -2.149285336245398 C 1.6423265054465248 -2.15941085438969 1.636617158182648 -2.235354276447301 1.6253665824667687 -2.251889830446525 C 1.6208663521804167 -2.2585040520462147 1.6091893715085812 -2.2614448210595137 1.5953643685659484 -2.256876528858243 C 1.5732375576662438 -2.250288339470504 1.5162839904957899 -2.2308901130938326 1.4477215045684195 -2.2072218743875167 L 1.4319706985661882 -2.230371649986431 C 1.4229702379934843 -2.24360009318581 1.3797736118507444 -2.2359809403533526 1.3698522794512098 -2.2292305949238247 C 1.3648916132514426 -2.2258554222090607 1.3649596751663615 -2.218644640866118 1.3677723190953315 -2.2145107523663117 L 1.3868982978123268 -2.1864003105676306 C 1.260291218100374 -2.141382010213094 1.1209841930173765 -2.0901418622573646 1.0986611951184238 -2.074953585040927 C 1.0573223101203633 -2.046827145751228 1.0713414640868204 -1.942671189022557 1.1095934215208112 -1.8864503054251947 C 1.1506580228837717 -1.8260955333280264 1.2590839919420869 -1.8285057685375672 1.372700845156877 -1.8392858736190987 C 1.372700845156877 -1.8392858736190987 1.3990296064713066 -1.8414759255928645 1.408950938870841 -1.8482262710223922 C 1.4188722712703754 -1.85497661645192 1.4202876099680812 -1.8813394087238091 1.4129747357527596 -1.8920875188233048 C 1.4056618615374377 -1.9028356289228006 1.3857171038659901 -1.9001511100781598 1.3857171038659901 -1.9001511100781598 C 1.2837432003655762 -1.8900356266548008 1.189142234249894 -1.892193683646531 1.1728288994618685 -1.9161702369454061 C 1.1570780934596372 -1.93932001254432 1.1611699522564747 -1.9759704790022894 1.1876268386552333 -1.993971400147697 C 1.2066427257543413 -2.0069095622209585 1.3407248357234045 -2.053385230976169 1.4527141657502225 -2.0896673196721687 L 1.497716468613741 -2.023525103675272 C 1.5067169291864446 -2.0102966604758925 1.5504760841149787 -2.017089035608389 1.5612241942144744 -2.0244019098237107 C 1.5661848604142419 -2.0277770825384747 1.5652900207993614 -2.034425335095624 1.5619148480845977 -2.039386001295391 L 1.5135373725063153 -2.110488883492055 M 1.4472721835080926 -1.744008259836308 C 1.4944610018326425 -1.751959072696175 1.6265643236261083 -1.7381492077029175 1.640161317164996 -1.7015962082814822 C 1.6450422892045968 -1.6884746187455824 1.640310722614505 -1.6696434669591533 1.627189133078605 -1.6647624949195527 C 1.601883210402227 -1.6553491917003227 1.4807417060653547 -1.654031645875852 1.4472721835080926 -1.744008259836308 M 1.323110668311908 -1.8397261690497235 C 1.2500046694690377 -1.812532181971948 1.2312685478231948 -1.6764625022278103 1.261948943500685 -1.5939839394307258 C 1.290188853158375 -1.518066171401591 1.3786305044920215 -1.4581405983181597 1.523244157979445 -1.4393818343658242 C 1.523244157979445 -1.4393818343658242 1.5489847453937953 -1.4361534974001113 1.5602318221388523 -1.440337187719769 C 1.5714788988839092 -1.4445208780394267 1.579153543151251 -1.4697815161028203 1.5746212119716216 -1.4819658492432988 C 1.5700888807919924 -1.494150182383777 1.5504291387946352 -1.4953726980676618 1.5504291387946352 -1.4953726980676618 C 1.4077986642825475 -1.5116683336937045 1.3455775497142082 -1.5728118771130515 1.3267509432757483 -1.623423722465808 C 1.3117593862969745 -1.6637257474689289 1.3314463159487933 -1.7169274842909945 1.3539404694389072 -1.7252948649303101 C 1.3839326740923925 -1.7364513724493975 1.4026551596943286 -1.7348802159055412 1.4026551596943286 -1.7348802159055412 C 1.4026551596943286 -1.7348802159055412 1.4066169722970312 -1.6840736804902912 1.4223058109957478 -1.6418971426963274 C 1.444967466893894 -1.5809754769939355 1.6172415051994955 -1.5767736052824017 1.6641043249705663 -1.5942056482809757 C 1.7044063499736872 -1.6091972052597494 1.7191942106273816 -1.7128568366370935 1.7014135267688362 -1.7606569128035858 C 1.6689899267914885 -1.8478217575777776 1.429020640994528 -1.8791225862265009 1.323110668311908 -1.8397261690497235" fill="#ffffff" fill-rule="nonzero"></path></g><g transform="matrix(1,0,0,1,0,0)"><path d=" M -1.5317240084134618 0.0076923076923076095 L -1.449031700721154 0.14999999999999994 L -1.3655701622596155 0.0076923076923076095 L -1.3278778545673078 0.0076923076923076095 L -1.4317240084134617 0.18115384615384608 L -1.4317240084134617 0.2807692307692307 L -1.4663393930288464 0.2807692307692307 L -1.4663393930288464 0.1803846153846153 L -1.569800931490385 0.0076923076923076095 L -1.5317240084134618 0.0076923076923076095 M -1.242867901141827 0.28461538461538455 Q -1.2655602088341347 0.28461538461538455 -1.2840217472956732 0.2763461538461538 Q -1.3024832857572117 0.26807692307692305 -1.3159448242187501 0.2536538461538461 Q -1.3294063626802886 0.23923076923076916 -1.336714054987981 0.22038461538461532 Q -1.3440217472956733 0.20153846153846147 -1.3440217472956733 0.18076923076923068 Q -1.3440217472956733 0.15961538461538455 -1.336714054987981 0.1407692307692307 Q -1.3294063626802886 0.12192307692307686 -1.3159448242187501 0.10749999999999993 Q -1.3024832857572117 0.093076923076923 -1.2838294396033656 0.08480769230769222 Q -1.2651755934495195 0.07653846153846144 -1.2424832857572117 0.07653846153846144 Q -1.2201755934495193 0.07653846153846144 -1.201714054987981 0.08480769230769222 Q -1.1832525165264425 0.093076923076923 -1.1695986703725962 0.10749999999999993 Q -1.1559448242187502 0.12192307692307686 -1.1486371319110578 0.1407692307692307 Q -1.1413294396033655 0.15961538461538455 -1.1413294396033655 0.18076923076923068 Q -1.1413294396033655 0.20153846153846147 -1.1486371319110578 0.22038461538461532 Q -1.1559448242187502 0.23923076923076916 -1.1694063626802886 0.2536538461538461 Q -1.182867901141827 0.26807692307692305 -1.2015217472956732 0.2763461538461538 Q -1.2201755934495193 0.28461538461538455 -1.242867901141827 0.28461538461538455 M -1.3094063626802885 0.18115384615384608 Q -1.3094063626802885 0.20192307692307687 -1.300367901141827 0.21884615384615377 Q -1.2913294396033654 0.2357692307692307 -1.2763294396033655 0.24557692307692303 Q -1.2613294396033656 0.2553846153846153 -1.242867901141827 0.2553846153846153 Q -1.2244063626802886 0.2553846153846153 -1.2092140549879808 0.2453846153846153 Q -1.1940217472956731 0.23538461538461533 -1.1849832857572116 0.21826923076923072 Q -1.1759448242187502 0.20115384615384607 -1.1759448242187502 0.1803846153846153 Q -1.1759448242187502 0.15961538461538455 -1.1849832857572116 0.14269230769230762 Q -1.1940217472956731 0.1257692307692307 -1.2092140549879808 0.11576923076923068 Q -1.2244063626802886 0.1057692307692307 -1.242867901141827 0.1057692307692307 Q -1.2613294396033656 0.1057692307692307 -1.2763294396033655 0.1159615384615384 Q -1.2913294396033654 0.1261538461538461 -1.300367901141827 0.143076923076923 Q -1.3094063626802885 0.15999999999999992 -1.3094063626802885 0.18115384615384608 M -1.102099045973558 0.20038461538461533 L -1.102099045973558 0.0799999999999999 L -1.0682528921274042 0.0799999999999999 L -1.0682528921274042 0.19384615384615378 Q -1.0682528921274042 0.22461538461538455 -1.0574836613581733 0.23999999999999994 Q -1.0467144305889426 0.2553846153846153 -1.0255605844350963 0.2553846153846153 Q -1.0117144305889425 0.2553846153846153 -0.9988298152043271 0.24942307692307686 Q -0.9859451998197117 0.2434615384615384 -0.9755605844350964 0.23230769230769224 Q -0.9651759690504811 0.2211538461538461 -0.9594067382812502 0.2057692307692307 L -0.9594067382812502 0.0799999999999999 L -0.9255605844350964 0.0799999999999999 L -0.9255605844350964 0.24230769230769225 Q -0.9255605844350964 0.2484615384615384 -0.9230605844350964 0.2513461538461538 Q -0.9205605844350964 0.25423076923076915 -0.9147913536658656 0.2546153846153846 L -0.9147913536658656 0.2807692307692307 Q -0.9205605844350964 0.28153846153846146 -0.9238298152043272 0.2817307692307692 Q -0.927099045973558 0.2819230769230769 -0.930175969050481 0.2819230769230769 Q -0.9397913536658656 0.2819230769230769 -0.9467144305889426 0.2759615384615384 Q -0.9536375075120195 0.26999999999999996 -0.9540221228966349 0.26115384615384607 L -0.9547913536658656 0.23769230769230765 Q -0.9678682767427887 0.25999999999999995 -0.9899836613581734 0.27230769230769225 Q -1.012099045973558 0.28461538461538455 -1.0382528921274041 0.28461538461538455 Q -1.0697913536658656 0.28461538461538455 -1.0859451998197118 0.2632692307692307 Q -1.102099045973558 0.24192307692307685 -1.102099045973558 0.20038461538461533 M -0.762863206129808 0.10961538461538453 Q -0.7882478215144234 0.10999999999999993 -0.8076708984375003 0.12249999999999991 Q -0.8270939753605773 0.13499999999999993 -0.8351708984375004 0.15692307692307683 L -0.8351708984375004 0.2807692307692307 L -0.8690170522836542 0.2807692307692307 L -0.8690170522836542 0.0799999999999999 L -0.8374785907451926 0.0799999999999999 L -0.8374785907451926 0.12653846153846146 Q -0.8270939753605773 0.1057692307692307 -0.8099785907451926 0.09288461538461532 Q -0.792863206129808 0.0799999999999999 -0.7740170522836541 0.07846153846153839 Q -0.7701708984375003 0.07846153846153839 -0.7674785907451926 0.07846153846153839 Q -0.7647862830528849 0.07846153846153839 -0.762863206129808 0.07884615384615376 L -0.762863206129808 0.10961538461538453 M -0.45019888070913494 0.03846153846153838 L -0.5444296499399042 0.03846153846153838 L -0.5444296499399042 0.2807692307692307 L -0.5790450345552889 0.2807692307692307 L -0.5790450345552889 0.03846153846153838 L -0.6732758037860581 0.03846153846153838 L -0.6732758037860581 0.0076923076923076095 L -0.45019888070913494 0.0076923076923076095 L -0.45019888070913494 0.03846153846153838 M -0.4713435246394234 0.22269230769230763 Q -0.4713435246394234 0.20346153846153842 -0.46038198617788495 0.18942307692307686 Q -0.4494204477163465 0.1753846153846153 -0.43018967848557726 0.16769230769230764 Q -0.41095890925480805 0.15999999999999992 -0.38557429387019265 0.15999999999999992 Q -0.3721127554086542 0.15999999999999992 -0.35711275540865417 0.16211538461538455 Q -0.34211275540865416 0.16423076923076918 -0.33057429387019266 0.16846153846153838 L -0.33057429387019266 0.15384615384615377 Q -0.33057429387019266 0.1307692307692307 -0.3444204477163465 0.11749999999999991 Q -0.35826660156250034 0.10423076923076915 -0.38365121694711574 0.10423076923076915 Q -0.4001896784855773 0.10423076923076915 -0.41538198617788497 0.11019230769230762 Q -0.43057429387019264 0.11615384615384608 -0.44749737079326957 0.12730769230769223 L -0.45980506310096186 0.10346153846153838 Q -0.4401896784855773 0.08999999999999991 -0.42057429387019263 0.08326923076923068 Q -0.40095890925480804 0.07653846153846144 -0.37980506310096185 0.07653846153846144 Q -0.3413435246394234 0.07653846153846144 -0.3190358323317311 0.09788461538461529 Q -0.2967281400240388 0.11923076923076917 -0.2967281400240388 0.15730769230769223 L -0.2967281400240388 0.24230769230769225 Q -0.2967281400240388 0.2484615384615384 -0.2942281400240388 0.2513461538461538 Q -0.2917281400240388 0.25423076923076915 -0.28595890925480805 0.2546153846153846 L -0.28595890925480805 0.2807692307692307 Q -0.29095890925480805 0.28153846153846146 -0.29461275540865417 0.2819230769230769 Q -0.2982666015625003 0.28230769230769226 -0.30057429387019263 0.28230769230769226 Q -0.31249737079326956 0.28230769230769226 -0.318458909254808 0.2757692307692307 Q -0.3244204477163465 0.26923076923076916 -0.3251896784855772 0.26192307692307687 L -0.325958909254808 0.24923076923076917 Q -0.33903583233173107 0.2661538461538461 -0.36018967848557726 0.27538461538461534 Q -0.38134352463942345 0.28461538461538455 -0.4021127554086542 0.28461538461538455 Q -0.42211275540865417 0.28461538461538455 -0.437881986177885 0.2763461538461538 Q -0.45365121694711574 0.26807692307692305 -0.4624973707932696 0.2540384615384615 Q -0.4713435246394234 0.23999999999999994 -0.4713435246394234 0.22269230769230763 M -0.34057429387019267 0.23692307692307685 Q -0.33595890925480804 0.23153846153846147 -0.3332666015625003 0.2259615384615384 Q -0.33057429387019266 0.22038461538461532 -0.33057429387019266 0.21653846153846146 L -0.33057429387019266 0.1915384615384615 Q -0.3424973707932696 0.18692307692307686 -0.3555742938701927 0.18442307692307686 Q -0.3686512169471157 0.18192307692307685 -0.38134352463942345 0.18192307692307685 Q -0.4071127554086542 0.18192307692307685 -0.42307429387019263 0.19211538461538455 Q -0.4390358323317311 0.20230769230769224 -0.4390358323317311 0.21999999999999995 Q -0.4390358323317311 0.22961538461538455 -0.43384352463942344 0.2386538461538461 Q -0.4286512169471157 0.24769230769230763 -0.41845890925480805 0.2534615384615384 Q -0.40826660156250033 0.25923076923076915 -0.3932666015625004 0.25923076923076915 Q -0.37749737079326956 0.25923076923076915 -0.36326660156250035 0.2528846153846153 Q -0.3490358323317311 0.24653846153846148 -0.34057429387019267 0.23692307692307685 M -0.13941425030048107 0.28461538461538455 Q -0.16287578876201952 0.28461538461538455 -0.18210655799278877 0.273076923076923 Q -0.20133732722355802 0.2615384615384615 -0.21249117337740417 0.24307692307692302 L -0.21249117337740417 0.2807692307692307 L -0.24249117337740417 0.2807692307692307 L -0.24249117337740417 -1.1102230246251565e-16 L -0.2086450195312503 -1.1102230246251565e-16 L -0.2086450195312503 0.11999999999999991 Q -0.19595271183894264 0.1003846153846153 -0.17749117337740417 0.08846153846153837 Q -0.1590296349158657 0.07653846153846144 -0.13441425030048107 0.07653846153846144 Q -0.11364501953125031 0.07653846153846144 -0.09710655799278875 0.08519230769230762 Q -0.08056809645432722 0.09384615384615377 -0.06883732722355798 0.10865384615384607 Q -0.05710655799278877 0.12346153846153837 -0.05076040414663491 0.14211538461538453 Q -0.04441425030048107 0.1607692307692307 -0.04441425030048107 0.18115384615384608 Q -0.04441425030048107 0.20230769230769224 -0.05152963491586568 0.2209615384615384 Q -0.058645019531250286 0.23961538461538456 -0.07172194260817338 0.2540384615384615 Q -0.08479886568509645 0.2684615384615384 -0.10191425030048107 0.2765384615384615 Q -0.11902963491586568 0.28461538461538455 -0.13941425030048107 0.28461538461538455 M -0.14787578876201954 0.2553846153846153 Q -0.13287578876201953 0.2553846153846153 -0.12018348106971183 0.24923076923076917 Q -0.10749117337740416 0.24307692307692302 -0.09826040414663492 0.23269230769230764 Q -0.08902963491586569 0.22230769230769226 -0.08402963491586568 0.2088461538461538 Q -0.07902963491586568 0.19538461538461532 -0.07902963491586568 0.18115384615384608 Q -0.07902963491586568 0.16153846153846146 -0.08729886568509646 0.14423076923076916 Q -0.09556809645432723 0.12692307692307686 -0.11037578876201953 0.11634615384615377 Q -0.12518348106971183 0.1057692307692307 -0.14479886568509645 0.1057692307692307 Q -0.1590296349158657 0.1057692307692307 -0.171337327223558 0.11230769230769222 Q -0.18364501953125031 0.11884615384615377 -0.19306809645432724 0.12942307692307684 Q -0.20249117337740416 0.13999999999999993 -0.2086450195312503 0.15269230769230763 L -0.2086450195312503 0.2107692307692307 Q -0.2067219426081734 0.22038461538461532 -0.20056809645432724 0.2284615384615384 Q -0.1944142503004811 0.23653846153846148 -0.18556809645432723 0.24249999999999994 Q -0.1767219426081734 0.2484615384615384 -0.16691425030048107 0.25192307692307686 Q -0.15710655799278878 0.2553846153846153 -0.14787578876201954 0.2553846153846153 M -0.002112004206731081 -1.1102230246251565e-16 L 0.031734149639422775 -1.1102230246251565e-16 L 0.031734149639422775 0.22884615384615378 Q 0.031734149639422775 0.2453846153846153 0.036349534254807386 0.24923076923076917 Q 0.040964918870192005 0.25307692307692303 0.04750338040865354 0.25307692307692303 Q 0.05558030348557662 0.25307692307692303 0.06288799579326892 0.2513461538461538 Q 0.07019568810096125 0.24961538461538457 0.07519568810096124 0.24769230769230763 L 0.08058030348557663 0.27538461538461534 Q 0.07211876502403816 0.2788461538461538 0.06058030348557662 0.2811538461538461 Q 0.049041841947115083 0.28346153846153843 0.04019568810096123 0.28346153846153843 Q 0.020580303485576615 0.28346153846153843 0.009234149639422769 0.27230769230769225 Q -0.002112004206731081 0.26115384615384607 -0.002112004206731081 0.2411538461538461 L -0.002112004206731081 -1.1102230246251565e-16 M 0.19596905048076896 0.28461538461538455 Q 0.17327674278846122 0.28461538461538455 0.1546228966346151 0.2763461538461538 Q 0.13596905048076893 0.26807692307692305 0.12231520432692278 0.2536538461538461 Q 0.10866135817307662 0.23923076923076916 0.10116135817307662 0.22038461538461532 Q 0.09366135817307661 0.20153846153846147 0.09366135817307661 0.1803846153846153 Q 0.09366135817307661 0.15192307692307686 0.10673828124999969 0.12846153846153838 Q 0.11981520432692278 0.10499999999999993 0.14308443509615354 0.09076923076923069 Q 0.1663536658653843 0.07653846153846144 0.19635366586538433 0.07653846153846144 Q 0.2267382812499997 0.07653846153846144 0.24923828124999972 0.09096153846153837 Q 0.2717382812499997 0.1053846153846153 0.2842382812499997 0.1286538461538461 Q 0.2967382812499997 0.15192307692307686 0.2967382812499997 0.17884615384615377 Q 0.2967382812499997 0.18269230769230763 0.296545973557692 0.18634615384615377 Q 0.29635366586538436 0.18999999999999995 0.29596905048076894 0.19192307692307686 L 0.12943058894230738 0.19192307692307686 Q 0.13096905048076893 0.21153846153846148 0.14039212740384585 0.22673076923076918 Q 0.14981520432692277 0.24192307692307685 0.16481520432692276 0.25057692307692303 Q 0.17981520432692277 0.25923076923076915 0.19712289663461507 0.25923076923076915 Q 0.21558443509615355 0.25923076923076915 0.2319305889423074 0.24999999999999994 Q 0.24827674278846126 0.2407692307692307 0.2544305889423074 0.22576923076923072 L 0.28366135817307664 0.2338461538461538 Q 0.2771228966346151 0.2484615384615384 0.2642382812499997 0.25999999999999995 Q 0.2513536658653843 0.2715384615384615 0.23385366586538434 0.278076923076923 Q 0.21635366586538432 0.28461538461538455 0.19596905048076896 0.28461538461538455 M 0.12827674278846124 0.16846153846153838 L 0.26519981971153817 0.16846153846153838 Q 0.2636613581730767 0.14884615384615377 0.254045973557692 0.13384615384615378 Q 0.2444305889423074 0.11884615384615377 0.22943058894230742 0.1103846153846153 Q 0.2144305889423074 0.10192307692307684 0.19635366586538433 0.10192307692307684 Q 0.17866135817307663 0.10192307692307684 0.16366135817307664 0.1103846153846153 Q 0.14866135817307663 0.11884615384615377 0.1392382812499997 0.13384615384615378 Q 0.12981520432692278 0.14884615384615377 0.12827674278846124 0.16846153846153838 M 0.5082722355769229 0.0076923076923076095 L 0.5375030048076921 0.0076923076923076095 L 0.6490414663461537 0.2807692307692307 L 0.6121183894230767 0.2807692307692307 L 0.5798106971153845 0.2007692307692307 L 0.4651953124999998 0.2007692307692307 L 0.43327223557692285 0.2807692307692307 L 0.3963491586538459 0.2807692307692307 L 0.5082722355769229 0.0076923076923076095 M 0.5721183894230767 0.17384615384615376 L 0.5228876201923075 0.04769230769230762 L 0.4721183894230767 0.17384615384615376 L 0.5721183894230767 0.17384615384615376 M 0.9182833158052883 0.0799999999999999 L 0.9509756234975959 0.0799999999999999 L 0.8655910081129805 0.2807692307692307 L 0.8359756234975959 0.2807692307692307 L 0.797129469651442 0.1861538461538461 L 0.7586679311899036 0.2807692307692307 L 0.729052546574519 0.2807692307692307 L 0.6436679311899036 0.0799999999999999 L 0.6759756234975959 0.0799999999999999 L 0.7452063927283652 0.24730769230769226 L 0.7775140850360575 0.16499999999999992 L 0.7436679311899036 0.0803846153846153 L 0.7732833158052882 0.0803846153846153 L 0.797129469651442 0.14423076923076916 L 0.8209756234975959 0.0803846153846153 L 0.8505910081129806 0.0803846153846153 L 0.8171294696514421 0.16499999999999992 L 0.8494371619591343 0.24730769230769226 L 0.9182833158052883 0.0799999999999999 M 0.9617384690504805 0.22269230769230763 Q 0.9617384690504805 0.20346153846153842 0.972700007512019 0.18942307692307686 Q 0.9836615459735575 0.1753846153846153 1.0028923152043268 0.16769230769230764 Q 1.022123084435096 0.15999999999999992 1.0475076998197115 0.15999999999999992 Q 1.06096923828125 0.15999999999999992 1.0759692382812498 0.16211538461538455 Q 1.09096923828125 0.16423076923076918 1.1025076998197114 0.16846153846153838 L 1.1025076998197114 0.15384615384615377 Q 1.1025076998197114 0.1307692307692307 1.0886615459735576 0.11749999999999991 Q 1.0748153921274037 0.10423076923076915 1.0494307767427884 0.10423076923076915 Q 1.0328923152043268 0.10423076923076915 1.017700007512019 0.11019230769230762 Q 1.0025076998197113 0.11615384615384608 0.9855846228966344 0.12730769230769223 L 0.9732769305889422 0.10346153846153838 Q 0.9928923152043267 0.08999999999999991 1.0125076998197113 0.08326923076923068 Q 1.032123084435096 0.07653846153846144 1.0532769305889422 0.07653846153846144 Q 1.0917384690504806 0.07653846153846144 1.114046161358173 0.09788461538461529 Q 1.1363538536658653 0.11923076923076917 1.1363538536658653 0.15730769230769223 L 1.1363538536658653 0.24230769230769225 Q 1.1363538536658653 0.2484615384615384 1.1388538536658652 0.2513461538461538 Q 1.1413538536658652 0.25423076923076915 1.147123084435096 0.2546153846153846 L 1.147123084435096 0.2807692307692307 Q 1.142123084435096 0.28153846153846146 1.1384692382812498 0.2819230769230769 Q 1.1348153921274038 0.28230769230769226 1.1325076998197114 0.28230769230769226 Q 1.1205846228966345 0.28230769230769226 1.114623084435096 0.2757692307692307 Q 1.1086615459735576 0.26923076923076916 1.1078923152043267 0.26192307692307687 L 1.1071230844350959 0.24923076923076917 Q 1.094046161358173 0.2661538461538461 1.0728923152043268 0.27538461538461534 Q 1.0517384690504805 0.28461538461538455 1.0309692382812499 0.28461538461538455 Q 1.0109692382812498 0.28461538461538455 0.9952000075120191 0.2763461538461538 Q 0.9794307767427883 0.26807692307692305 0.9705846228966344 0.2540384615384615 Q 0.9617384690504805 0.23999999999999994 0.9617384690504805 0.22269230769230763 M 1.0925076998197114 0.23692307692307685 Q 1.097123084435096 0.23153846153846147 1.0998153921274036 0.2259615384615384 Q 1.1025076998197114 0.22038461538461532 1.1025076998197114 0.21653846153846146 L 1.1025076998197114 0.1915384615384615 Q 1.0905846228966345 0.18692307692307686 1.0775076998197113 0.18442307692307686 Q 1.0644307767427883 0.18192307692307685 1.0517384690504805 0.18192307692307685 Q 1.0259692382812498 0.18192307692307685 1.0100076998197114 0.19211538461538455 Q 0.9940461613581729 0.20230769230769224 0.9940461613581729 0.21999999999999995 Q 0.9940461613581729 0.22961538461538455 0.9992384690504806 0.2386538461538461 Q 1.0044307767427882 0.24769230769230763 1.014623084435096 0.2534615384615384 Q 1.0248153921274037 0.25923076923076915 1.0398153921274036 0.25923076923076915 Q 1.0555846228966344 0.25923076923076915 1.0698153921274036 0.2528846153846153 Q 1.0840461613581729 0.24653846153846148 1.0925076998197114 0.23692307692307685 M 1.1905908203124997 0.2807692307692307 L 1.1905908203124997 0.0799999999999999 L 1.2244369741586536 0.0799999999999999 L 1.2244369741586536 0.2807692307692307 L 1.1905908203124997 0.2807692307692307 M 1.1905908203124997 0.04230769230769221 L 1.1905908203124997 -1.1102230246251565e-16 L 1.2244369741586536 -1.1102230246251565e-16 L 1.2244369741586536 0.04230769230769221 L 1.1905908203124997 0.04230769230769221 M 1.3828910006009614 0.2707692307692307 Q 1.3786602313701921 0.2726923076923076 1.3713525390624999 0.2757692307692307 Q 1.3640448467548074 0.2788461538461538 1.3544294621394228 0.2811538461538461 Q 1.3448140775240383 0.28346153846153843 1.3340448467548076 0.28346153846153843 Q 1.3217371544471153 0.28346153846153843 1.3113525390624998 0.27903846153846146 Q 1.3009679236778844 0.27461538461538454 1.2948140775240382 0.2651923076923076 Q 1.288660231370192 0.2557692307692307 1.288660231370192 0.24153846153846148 L 1.288660231370192 0.10653846153846147 L 1.2613525390624998 0.10653846153846147 L 1.2613525390624998 0.0799999999999999 L 1.288660231370192 0.0799999999999999 L 1.288660231370192 0.013076923076922986 L 1.322506385216346 0.013076923076922986 L 1.322506385216346 0.0799999999999999 L 1.367506385216346 0.0799999999999999 L 1.367506385216346 0.10653846153846147 L 1.322506385216346 0.10653846153846147 L 1.322506385216346 0.2311538461538461 Q 1.3232756159855767 0.24192307692307685 1.3298140775240384 0.24711538461538457 Q 1.3363525390624997 0.25230769230769223 1.3451986929086537 0.25230769230769223 Q 1.3551986929086537 0.25230769230769223 1.3636602313701922 0.24884615384615377 Q 1.3721217698317305 0.2453846153846153 1.3748140775240383 0.2438461538461538 L 1.3828910006009614 0.2707692307692307 M 1.4832716721754806 0.28461538461538455 Q 1.4582716721754805 0.28461538461538455 1.4363485952524035 0.2763461538461538 Q 1.4144255183293266 0.26807692307692305 1.3986562875600959 0.2515384615384615 L 1.411733210637019 0.22769230769230764 Q 1.4290409029447113 0.2438461538461538 1.4463485952524036 0.2507692307692307 Q 1.463656287560096 0.2576923076923076 1.481733210637019 0.2576923076923076 Q 1.5025024414062498 0.2576923076923076 1.5155793644831728 0.24980769230769226 Q 1.528656287560096 0.24192307692307685 1.528656287560096 0.22653846153846147 Q 1.528656287560096 0.21538461538461534 1.5219255183293268 0.20999999999999994 Q 1.5151947490985576 0.20461538461538453 1.5028870567908652 0.2009615384615384 Q 1.4905793644831729 0.19730769230769224 1.4736562875600958 0.1926923076923076 Q 1.4528870567908652 0.1865384615384615 1.438656287560096 0.17961538461538457 Q 1.4244255183293266 0.17269230769230762 1.4171178260216344 0.16230769230769224 Q 1.4098101337139421 0.15192307692307686 1.4098101337139421 0.13615384615384607 Q 1.4098101337139421 0.11692307692307685 1.4198101337139422 0.10365384615384607 Q 1.429810133713942 0.09038461538461531 1.447310133713942 0.08346153846153839 Q 1.464810133713942 0.07653846153846144 1.4871178260216344 0.07653846153846144 Q 1.5094255183293266 0.07653846153846144 1.5275024414062497 0.08346153846153839 Q 1.5455793644831728 0.09038461538461531 1.558656287560096 0.10384615384615375 L 1.5432716721754804 0.12730769230769223 Q 1.5313485952524035 0.11499999999999994 1.5171178260216345 0.10903846153846147 Q 1.5028870567908652 0.10307692307692301 1.4851947490985575 0.10307692307692301 Q 1.474810133713942 0.10307692307692301 1.464810133713942 0.10557692307692298 Q 1.454810133713942 0.10807692307692299 1.4482716721754805 0.11442307692307685 Q 1.441733210637019 0.12076923076923068 1.441733210637019 0.13230769230769224 Q 1.441733210637019 0.14192307692307685 1.4469255183293266 0.14749999999999994 Q 1.4521178260216343 0.153076923076923 1.4623101337139421 0.15692307692307683 Q 1.4725024414062498 0.1607692307692307 1.4871178260216344 0.1653846153846153 Q 1.509810133713942 0.17192307692307685 1.5265409029447112 0.1784615384615384 Q 1.5432716721754804 0.18499999999999994 1.5525024414062498 0.19538461538461532 Q 1.561733210637019 0.2057692307692307 1.561733210637019 0.22423076923076918 Q 1.561733210637019 0.25269230769230766 1.5401947490985575 0.2686538461538461 Q 1.518656287560096 0.28461538461538455 1.4832716721754806 0.28461538461538455" fill="#ffffff" fill-rule="nonzero"></path></g><g transform="matrix(1,0,0,1,0,0)"><g clip-path="url(#SvgjsClipPath1002)"><g clip-path="url(#SvgjsClipPath1000ae596720-0719-42d9-b291-9e47d25de6fa)"><path d=" M -0.09774322430443272 -0.18750000000000044 L 0.16987295189983798 -0.18750000000000044 L 0.030371842700619323 -0.3586373124061759 L -0.09774322430443272 -0.18750000000000044 Z" fill="#ffffff" transform="matrix(1,0,0,1,0,0)" fill-rule="nonzero"></path></g><g clip-path="url(#SvgjsClipPath1000ae596720-0719-42d9-b291-9e47d25de6fa)"><path d=" M 0.9837948313987982 -1.3319909731719943 C 0.9837948313987982 -1.5531045137641484 0.7977910865874626 -1.7384760783223152 0.5485217329993451 -1.7682157407697658 C 0.5485217329993451 -1.7682157407697658 0.3852900725763434 -1.7429081377316267 0.32171177249154204 -1.6337720735958965 C 0.3248794713945161 -1.6419972145242199 0.36758222785049 -1.747965579756976 0.5058189765433713 -1.8292653198418924 C 0.3903611098759544 -1.9719341279440854 0.2043573650646192 -2.057339640856033 0.000006797637130850909 -2.057339640856033 C -0.2321800938411711 -2.057339640856033 -0.44096272067797093 -1.9469392162139652 -0.548827626670233 -1.7682089431326349 C -0.7977910865874629 -1.7384760783223152 -0.9837948313987982 -1.5531045137641486 -0.9837948313987982 -1.3319909731719943 C -0.9837948313987982 -1.1703431622004798 -0.8874995038032357 -0.9732592688658657 -0.7385088931693562 -0.8963915881902609 L -0.6216711061643775 -0.8463881694557589 C -0.6216711061643775 -0.8463881694557589 -0.6818777782322792 -0.8484274605950126 -0.7499493164605697 -0.8666519257428102 C -0.7499493164605697 -0.8666519257428102 -0.8749782562082177 -0.18813218025316925 -0.8749782562082177 -0.18750000000000044 L -0.21542391831363628 -0.18750000000000044 L -0.031004022953788124 -0.43424063257544354 L -0.16038345046517744 -0.5930402335891336 C -0.17208898160449404 -0.6072744857411247 -0.19264503628817187 -0.6094905154457804 -0.20719877738531278 -0.597784984306464 L -0.22301687898879108 -0.58481509266081 C -0.2543335932505979 -0.5591947983146521 -0.30716482903153197 -0.5709003294539687 -0.3397459037996763 -0.6117065451504362 L -0.5662431729994604 -0.889763891987686 C -0.577948704138777 -0.9039981441396774 -0.5760521633792709 -0.9248736877685051 -0.56149842228213 -0.9365792189078217 L -0.5611789333369801 -0.9365792189078217 C -0.546944681184989 -0.9479652611019884 -0.5263818288641802 -0.9460687203424825 -0.5149957866700132 -0.9318344681904913 L -0.3296242221118467 -0.7043923274295196 C -0.31254176000203093 -0.6835167838006919 -0.2859697964575546 -0.6775076725770239 -0.2698390035460573 -0.6904707665855472 C -0.254020901942579 -0.7034406582312012 -0.25465308219574767 -0.7309642909739962 -0.2714228529975443 -0.7515203456576738 L -0.45679441755571093 -0.9792819753637954 C -0.4681804597498779 -0.9932035362077676 -0.46596443004522203 -1.0140790798365953 -0.45204966683838055 -1.025784610975912 C -0.4447761951083755 -1.0311615419464109 -0.43623156523490225 -1.0340097519042353 -0.42769373299855984 -1.0330648803430476 C -0.41946859207023635 -1.0321132111447293 -0.41124345114191285 -1.0280006406805675 -0.4055470312262639 -1.0207271689505624 L -0.22017546666809729 -0.7935977194976098 C -0.2030930045582816 -0.7727153782316512 -0.1768337323218242 -0.7663935756999645 -0.16070293941032687 -0.7796761586536374 L -0.1603834504651771 -0.7799956475987873 C -0.14425265755367989 -0.7926460502992911 -0.1448848378068487 -0.8201696830420862 -0.16196729991666414 -0.8410452266709139 L -0.347019375529681 -1.0684873674318855 C -0.3587249066689976 -1.0827216195838767 -0.35650887696434186 -1.1035971632127044 -0.3422746248123506 -1.114990003044002 C -0.32804037266035935 -1.1263760452381688 -0.30716482903153164 -1.1244795044786629 -0.29577198920023395 -1.1102452523266715 L -0.06959420894559964 -0.8325073944345716 C -0.03638095392428686 -0.7920206676832535 -0.0354292847259684 -0.7376055824508325 -0.06642651004262534 -0.7123047770498241 L -0.08224461164610375 -0.6993348854041703 C -0.096478863798095 -0.6876293542648537 -0.09869489350275074 -0.6670665019440449 -0.08698936236343413 -0.6528322497920538 L 0.027204143797645464 -0.5123794713945169 L 0.13823674869288183 -0.6607379017752277 C 0.14931009957902963 -0.6752916428723685 0.1464618896212052 -0.6958476975560464 0.13159545721604526 -0.7069210484421944 C 0.11957723476870974 -0.7157783696236868 0.11198427409355516 -0.72906775021449 0.11008093569691801 -0.7442468739276689 C 0.09363065384027103 -0.8774193829580701 0.23534779274414575 -1.025784610975912 0.23534779274414575 -1.025784610975912 C 0.313167142618069 -1.113725642537665 0.42546410801964274 -1.1266955341833187 0.5026512776403974 -1.0688068563770354 C 0.5798384472611523 -1.0112308698787709 0.5994496303836426 -0.8998855736755158 0.5364967129148791 -0.8002390109744464 C 0.5364967129148791 -0.8002390109744464 0.43463412050915384 -0.6224604070914346 0.3020937917319214 -0.6006331942642884 C 0.28722735932676147 -0.5981044732516139 0.27204143797645164 -0.601897554770626 0.26033590683713526 -0.610754875952118 C 0.2454694744319753 -0.6218282268382658 0.22490662211116652 -0.6186605279352917 0.2138332712250185 -0.6041135844752814 L 0.0888791054858099 -0.4367693535881181 L 0.2919653124069609 -0.18750000000000067 L 0.8752841498791059 -0.18750000000000067 C 0.8752841498791059 -0.18781948894515033 0.7765892563763549 -0.9767532543511208 0.7765892563763549 -0.9767532543511208 C 0.9018561134235822 -1.0567886339297 0.9837880337616672 -1.1861680614410892 0.9837880337616672 -1.3319977708091257 Z" fill="#ffffff" transform="matrix(1,0,0,1,0,0)" fill-rule="nonzero"></path></g></g></g></g><defs><clipPath id="SvgjsClipPath1002"><path d=" M -0.9837948313987982 -2.057339640856033 h 1.9675896627975964 v 1.869839640856033 h -1.9675896627975964 Z"></path></clipPath><clipPath id="SvgjsClipPath1000ae596720-0719-42d9-b291-9e47d25de6fa"><path d=" M -0.9837948313987982 -2.057339640856033 L 0.9837948313987982 -2.057339640856033 L 0.9837948313987982 -0.1875 L -0.9837948313987982 -0.1875 Z"></path></clipPath></defs></svg>